<svg xmlns="http://www.w3.org/2000/svg" viewBox="0 0 448 512">
  <path fill="#F7DF1E" d="M0 0h448v512H0V0z"/>
  <path d="M400 432H48V80h352v352zm-144.7-55.6c0 45.5-26.7 64.6-65.7 64.6-35.2 0-55.1-18.2-65.5-40.3l35.5-21.4c6.8 12.1 13.1 22.3 28.1 22.3 14.3 0 23.5-5.6 23.5-27.6V237.1h44.1v139.3zm99 64.6c-40.9 0-67.4-19.4-80.3-44.9l35.5-20.5c9.3 15.3 21.5 26.6 43 26.6 18 0 29.6-9 29.6-21.5 0-14.9-11.8-20.2-31.8-29l-10.9-4.7c-31.5-13.4-52.4-30.2-52.4-65.7 0-32.7 24.9-57.6 63.8-57.6 27.7 0 47.6 9.6 61.9 35l-33.9 21.7c-7.5-13.4-15.5-18.6-28-18.6-12.7 0-20.8 8.1-20.8 18.6 0 13.1 8.1 18.3 26.8 26.4l10.9 4.7c37.1 15.9 58 32.1 58 68.6 0 39.3-30.8 60.9-72.4 60.9z"/>
</svg> 