<svg xmlns="http://www.w3.org/2000/svg" viewBox="0 0 256 256">
  <defs>
    <linearGradient id="a" x1="72.01" y1="225.13" x2="148.76" y2="38.2" gradientUnits="userSpaceOnUse">
      <stop offset="0" stop-color="#10AA50"/>
      <stop offset="1" stop-color="#B8C4C2"/>
    </linearGradient>
  </defs>
  <path d="M145.25 4.66C135.05-5.18 126.45 2.23 126.45 2.23s-.39.42-1.1 1.24c-.45-1.24-.8-2.02-.8-2.02-9.78-8.44-18.42-1.24-18.42-1.24-14.14 12.13-14.93 33.83-14.93 33.83C89.41 60.1 92.8 92.7 92.8 92.7c2.37 42.23 28.89 78.41 28.89 78.41 2.34 3.37 4.64 6.81 6.76 10.25v.01c.45.73.89 1.45 1.31 2.19.42-.74.86-1.46 1.31-2.19v-.01c2.12-3.44 4.42-6.88 6.76-10.25 0 0 26.52-36.18 28.89-78.41 0 0 3.39-32.6 1.6-58.66 0 0-.79-21.7-14.93-33.83-8.14-5.55-8.14 4.45-8.14 4.45z" fill="url(#a)"/>
  <path d="M129.86 187.37c0 2.88-.05 4.19-.05 4.19l.44 14.7s-1.17 10.88-3.52 16.39c0 0 2.42-1.47 5.27-4.44 2.85-2.97 4.85-7.36 4.85-7.36 1.55-3.25 2.55-8.05 2.55-8.05 1.27-5.06 1.27-14.09 1.27-14.09 0-1.47-.05-2.88-.13-4.19-.08-1.31-.21-2.55-.37-3.71-.08-.58-.18-1.15-.29-1.7-.05-.29-.11-.57-.16-.85-.08-.39-.16-.77-.24-1.13-.21-.97-.45-1.86-.69-2.63-.24-.77-.5-1.42-.74-1.94-.24-.52-.47-.92-.66-1.18-.08-.11-.15-.21-.21-.29 0 0-.03-.03-.03-.03-.13.21-.24.45-.34.71-.21.5-.4 1.1-.58 1.78-.18.68-.34 1.44-.5 2.26-.13.82-.26 1.7-.37 2.63-.11.92-.21 1.89-.29 2.86-.08.98-.13 1.97-.16 2.94-.03.98-.05 1.94-.05 2.84z" fill="#B8C4C2"/>
</svg> 